<?xml version="1.0" standalone="no"?>
<!DOCTYPE svg PUBLIC "-//W3C//DTD SVG 20010904//EN"
 "http://www.w3.org/TR/2001/REC-SVG-20010904/DTD/svg10.dtd">
<svg version="1.0" xmlns="http://www.w3.org/2000/svg"
 width="700.000000pt" height="700.000000pt" viewBox="0 0 700.000000 700.000000"
 preserveAspectRatio="xMidYMid meet">
<metadata>
Created by potrace 1.14, written by Peter Selinger 2001-2017
</metadata>
<g transform="translate(0.000000,700.000000) scale(0.100000,-0.100000)"
fill="#000000" stroke="none">
<path d="M0 3500 l0 -3500 974 0 c920 0 975 1 980 18 58 191 265 977 259 982
-4 4 -336 78 -738 165 -401 87 -733 160 -737 164 -4 3 356 80 800 170 444 91
821 168 838 173 31 8 31 10 84 203 29 107 51 197 48 200 -2 2 -504 53 -1116
112 -611 59 -1110 109 -1108 110 1 2 526 55 1167 118 640 63 1170 116 1178
118 10 1 32 69 68 206 56 217 57 220 3 221 -14 1 -536 56 -1160 124 -771 83
-1122 125 -1095 129 22 4 582 66 1245 138 662 71 1206 131 1207 133 1 1 86
301 188 667 102 365 188 672 191 682 5 16 -45 17 -951 17 -907 0 -957 1 -953
18 3 9 51 187 108 395 57 207 100 380 97 383 -3 4 -352 35 -774 69 -422 35
-766 64 -763 64 3 1 366 30 807 64 441 35 805 66 808 69 7 7 96 301 92 304 -1
1 -288 31 -637 68 -349 37 -648 70 -664 74 -18 4 222 29 640 66 368 32 685 61
703 65 33 6 36 10 52 76 10 38 17 70 16 71 -1 0 -392 36 -869 80 -477 43 -864
82 -860 85 4 3 405 47 892 98 487 51 890 94 895 96 6 2 -423 4 -952 4 l-963 1
0 -3500z"/>
<path d="M4445 2448 c-362 -1322 -661 -2413 -663 -2426 l-4 -22 1611 0 1611 0
0 2425 0 2425 -948 0 -948 0 -659 -2402z"/>
</g>
</svg>
